<svg version="1.1" id="Layer_1" xmlns="http://www.w3.org/2000/svg" xmlns:xlink="http://www.w3.org/1999/xlink" x="0px" y="0px"
	 width="100%" viewBox="0 0 1024 1024" enable-background="new 0 0 1024 1024" xml:space="preserve">
<path fill="#000000" opacity="1.000000" stroke="none" 
	d="
M0.999986,835.000000 
	C1.000000,613.639771 1.000000,392.279602 1.247151,170.617279 
	C2.495297,171.117676 3.558167,171.305969 4.742978,170.711868 
	C14.005492,166.067429 23.653982,162.483459 29.382097,152.440567 
	C34.653854,143.197784 42.676407,136.357971 53.730034,134.021866 
	C60.568344,132.576660 67.119064,130.050049 73.807159,128.077087 
	C85.778908,124.545486 96.774933,119.398438 106.677933,111.814423 
	C114.207573,106.047989 122.704750,101.985847 132.084641,100.979439 
	C144.391541,99.658981 156.661880,98.360138 168.157257,93.575722 
	C173.842987,91.209312 179.207703,88.040428 185.507614,87.634926 
	C198.693176,86.786217 210.798492,81.793892 222.992416,77.488556 
	C237.186859,72.476906 251.131561,70.343262 266.041687,74.318192 
	C277.205383,77.294342 287.775574,81.786430 298.564697,85.640717 
	C315.448273,91.672173 332.742249,95.700638 350.306519,98.696785 
	C361.787109,100.655182 371.837128,105.288254 380.869781,112.447136 
	C388.094879,118.173439 395.507782,123.648018 405.003723,124.853775 
	C418.872711,126.614815 432.751953,128.326050 446.658722,129.746307 
	C454.695068,130.567062 462.616974,129.080811 470.408081,127.157722 
	C488.573242,122.674004 506.895111,119.452103 525.703918,119.998276 
	C529.913269,120.120522 534.042053,119.952538 537.868469,117.913422 
	C543.305481,115.015976 549.157227,113.963676 555.250549,114.139496 
	C561.474243,114.319061 567.424011,113.319305 573.417908,111.458473 
	C591.845764,105.737488 610.339539,105.119637 628.931213,111.284134 
	C637.446106,114.107445 646.056885,117.161079 655.041443,117.870247 
	C682.266663,120.019180 709.516663,121.880966 736.773682,123.588371 
	C750.053284,124.420227 763.214172,124.237640 773.876038,114.183891 
	C783.185242,105.405624 794.734314,102.106331 807.154724,101.030899 
	C819.433716,99.967705 831.707092,98.934914 843.946228,97.338997 
	C854.799500,95.923790 865.771179,96.768013 875.716064,101.766106 
	C900.967529,114.456894 928.138611,120.040154 955.792847,123.537903 
	C963.226746,124.478149 967.866455,128.010483 971.158875,133.803635 
	C973.769836,138.397781 977.325256,141.774155 981.810486,143.999619 
	C995.446289,150.765396 1008.767456,158.788574 1025.000000,157.000000 
	C1025.000000,392.693512 1025.000000,628.387024 1024.800903,864.330933 
	C1023.955872,863.573792 1023.136169,862.359131 1021.914001,862.662964 
	C1017.398315,863.786011 1013.859314,861.090881 1010.056030,859.716919 
	C1005.698792,858.142822 1001.627380,858.427979 997.387512,859.877869 
	C983.861511,864.503479 970.715149,870.281799 956.596558,873.129639 
	C954.041321,873.645081 951.665894,875.081482 949.226318,876.136230 
	C934.720886,882.407837 920.594971,889.850037 905.626526,894.685364 
	C886.006714,901.023376 865.580139,905.115356 845.117310,907.449036 
	C827.159973,909.496887 809.076050,911.448181 790.867981,911.211548 
	C778.192383,911.046753 765.591125,912.640381 753.231262,915.633301 
	C737.751770,919.381653 721.961304,920.340332 706.141968,920.932556 
	C686.413452,921.671204 668.035095,915.210632 649.591553,909.586060 
	C638.243652,906.125366 626.906616,904.542542 615.119202,905.596130 
	C595.679321,907.333679 576.212158,907.390808 556.707825,906.745605 
	C527.595276,905.782715 498.477631,904.719543 469.335388,905.728455 
	C459.353943,906.074036 449.401154,906.063721 439.411835,904.833496 
	C424.200623,902.960144 410.079193,897.450867 395.624268,892.961426 
	C382.713226,888.951538 369.583984,885.022766 358.047211,878.184570 
	C346.176392,871.148315 334.510834,870.177429 321.637512,873.054688 
	C301.310425,877.597900 280.903809,876.957458 261.701477,869.051331 
	C238.012863,859.298096 213.205963,857.060913 188.305695,856.486206 
	C170.717453,856.080261 153.017593,856.908997 135.366364,857.119019 
	C128.722382,857.197998 122.130630,858.147644 115.425026,857.233582 
	C85.365715,853.136047 55.509632,847.877258 27.081306,837.092468 
	C19.081060,834.057434 10.846431,836.825378 3.297086,833.372070 
	C2.869144,833.176331 1.780902,834.424072 0.999986,835.000000 
M683.446777,280.137848 
	C651.230835,262.476440 616.187134,256.295471 580.038696,255.566147 
	C561.072205,255.183487 542.184021,257.437286 523.563904,261.375946 
	C494.299896,267.566101 466.606873,277.576935 441.801300,294.728333 
	C423.967468,307.059265 409.110962,322.537933 394.866852,338.685486 
	C386.238251,348.467102 376.733948,356.723846 363.187134,359.017883 
	C350.377106,361.187195 344.548584,357.976501 340.718689,345.775208 
	C337.678711,336.090546 334.932404,326.304077 331.584442,316.727570 
	C322.370300,290.370911 311.766388,264.722382 292.991821,243.353516 
	C276.488220,224.569366 255.619370,214.294144 230.864960,213.589203 
	C195.351273,212.577881 161.350037,237.176956 149.610687,270.769165 
	C140.553711,296.685730 145.626785,318.849487 166.475769,337.158875 
	C172.388107,342.351044 178.896606,346.670166 185.305450,351.163422 
	C193.199768,356.698090 201.579376,361.644928 207.540878,369.548309 
	C215.773315,380.462341 215.082336,391.736816 205.512039,401.478088 
	C200.203293,406.881622 193.841156,410.857147 187.441879,414.754150 
	C162.985062,429.647766 137.749985,443.288086 114.914978,460.767059 
	C94.913399,476.077240 76.685638,492.996185 64.078003,515.139404 
	C48.178680,543.063904 45.171829,571.994385 58.698860,601.669128 
	C69.802193,626.026917 88.081047,644.275269 109.904655,659.171997 
	C149.715851,686.347168 194.283859,702.390320 240.703979,713.423767 
	C283.553894,723.608643 327.054474,730.093872 371.172394,731.484741 
	C392.053680,732.143127 412.829102,731.033203 433.095947,725.337158 
	C444.305481,722.186646 453.744019,716.186584 461.142822,707.109253 
	C463.984375,703.623047 466.806732,700.120667 469.683716,696.663940 
	C472.653442,693.095703 476.529236,691.579773 481.137665,691.575562 
	C487.400360,691.569824 492.098236,694.378418 495.133362,699.658630 
	C499.031769,706.440613 502.683105,713.369812 506.273956,720.321838 
	C510.336121,728.186279 516.661194,733.219055 525.027710,735.745972 
	C534.115417,738.490784 543.156250,741.456726 552.367188,743.716370 
	C588.609314,752.607544 625.243958,759.232544 662.418701,762.942200 
	C690.933960,765.787598 719.483765,767.849731 748.129211,767.560425 
	C767.587830,767.363953 787.017700,766.006714 806.392151,763.841064 
	C833.476013,760.813538 860.042236,755.614990 885.466492,745.622375 
	C922.762878,730.963623 950.445557,706.216492 964.744995,668.070435 
	C973.527405,644.641968 974.406250,620.286560 971.658997,595.722717 
	C968.412781,566.698059 956.992371,541.325867 937.002319,519.880859 
	C914.912537,496.183258 888.330811,478.571564 860.299866,462.876312 
	C849.255066,456.692108 837.943359,450.956787 827.411560,443.892151 
	C819.719482,438.732391 816.525940,431.487244 818.380615,422.357544 
	C821.079041,409.074402 829.867432,401.712402 845.306641,399.905792 
	C858.365845,398.377686 871.495056,397.418732 884.531311,395.729858 
	C899.581421,393.780090 914.596802,391.387787 928.012817,383.528442 
	C946.683472,372.590820 953.787415,354.619659 947.254395,334.037048 
	C942.798401,319.998383 935.146912,307.677582 924.922607,297.148468 
	C898.428406,269.864349 866.628174,251.915497 829.173096,244.806213 
	C808.084473,240.803406 794.038025,245.224777 782.129150,264.190491 
	C776.109070,273.778076 769.638977,283.097717 763.028442,292.291199 
	C760.974182,295.148224 761.094727,297.178528 762.860107,299.869537 
	C765.599426,304.045013 768.331177,308.258942 770.630432,312.683014 
	C776.577332,324.125549 781.584351,335.897705 781.277649,349.185120 
	C781.080078,357.744354 775.587097,364.880310 767.724548,365.984283 
	C760.486450,367.000549 755.391174,362.829224 751.130249,357.642120 
	C745.383484,350.646423 741.183716,342.648407 737.122864,334.628723 
	C725.140076,310.964355 707.142151,293.264221 683.446777,280.137848 
z"/>
<path fill="#000000" opacity="1.000000" stroke="none" 
	d="
M564.582153,607.310669 
	C566.190369,607.500366 567.347473,607.648560 568.509399,607.721191 
	C578.889587,608.369812 579.222412,608.689331 577.138611,619.053894 
	C571.083130,649.173584 551.638672,667.053833 523.778931,677.210815 
	C505.379486,683.918762 487.016815,685.177307 468.061279,678.849243 
	C451.386322,673.282593 440.632965,662.491211 435.043335,646.110962 
	C429.317352,629.331238 425.893677,612.060608 424.114899,594.452087 
	C423.589203,589.248047 424.891113,588.138550 430.084686,589.208069 
	C467.644928,596.942627 505.772430,600.532837 543.802490,604.840210 
	C550.582764,605.608093 557.356506,606.434631 564.582153,607.310669 
z"/>
<path fill="#000000" opacity="1.000000" stroke="none" 
	d="
M649.624023,528.523376 
	C643.050232,527.822632 637.048035,526.448425 631.229797,524.475525 
	C617.524475,519.828247 610.705872,507.491577 612.961121,490.777557 
	C614.782837,477.276764 620.236145,465.268158 629.452087,455.089905 
	C632.846436,451.341156 636.819153,448.361237 641.395752,446.222107 
	C649.967163,442.215851 657.974548,443.316101 664.878479,449.850861 
	C672.084656,456.671814 676.634766,465.044250 678.259155,474.910187 
	C678.690002,477.526855 678.726440,480.275085 679.577332,482.744659 
	C683.724915,494.781708 680.184143,505.742340 674.899231,516.342712 
	C669.900330,526.369141 661.196655,530.440918 649.624023,528.523376 
z"/>
<path fill="#000000" opacity="1.000000" stroke="none" 
	d="
M869.251831,345.744324 
	C857.661255,335.127991 844.833374,332.140747 830.169006,337.338867 
	C824.033264,339.513794 819.854004,337.301117 817.676819,331.133270 
	C815.418091,324.734436 816.810608,318.676727 820.969727,313.747803 
	C831.958374,300.725250 846.113342,295.242767 862.912231,298.773743 
	C878.722107,302.096863 888.618530,312.207581 892.545227,327.860382 
	C894.292786,334.826599 893.811157,341.798950 890.378540,348.284821 
	C885.940186,356.671204 879.046143,357.362030 873.114868,350.136383 
	C871.953430,348.721558 870.711365,347.372986 869.251831,345.744324 
z"/>
<path fill="#000000" opacity="1.000000" stroke="none" 
	d="
M221.176208,316.188232 
	C218.477097,317.239227 216.180710,318.234833 213.825424,319.062958 
	C207.320587,321.350067 202.719406,318.600769 201.603622,311.674133 
	C200.749573,306.372345 201.910706,301.397919 204.623947,296.796173 
	C211.103790,285.806091 221.123856,279.908539 233.378128,278.132355 
	C246.885162,276.174652 259.667053,278.295197 270.360229,287.727356 
	C280.768219,296.907928 282.317474,314.599762 273.721466,325.542084 
	C270.296539,329.901855 266.531036,330.440826 262.049622,327.107605 
	C260.449127,325.917236 258.995209,324.529816 257.475220,323.231293 
	C246.838058,314.144196 234.868286,311.729797 221.176208,316.188232 
z"/>
<path fill="#000000" opacity="1.000000" stroke="none" 
	d="
M344.331726,483.319763 
	C341.539978,473.714294 341.529877,464.546112 345.352264,455.631653 
	C352.236664,439.576080 370.588196,435.501007 383.720673,447.015717 
	C396.078949,457.851654 396.647552,481.560181 384.824249,493.027771 
	C371.287231,506.157501 351.531097,501.581970 344.331726,483.319763 
z"/>
</svg>